<svg id="Layer_1" data-name="Layer 1" xmlns="http://www.w3.org/2000/svg" viewBox="0 0 1256.8 1803.5"><defs><style>.cls-1{fill:none;stroke:#000;stroke-miterlimit:10;stroke-width:8px;}</style></defs><title>Lahore_1919_cropped</title><polyline class="cls-1" points="278.86 0 278.86 20 278.86 38 278.86 62 278.86 84 266.86 134 254.86 194 240.86 254 230.86 314 220.86 354 210.86 400 210.86 424 194.86 464 178.86 502 162.86 540 146.86 580 132.86 622 118.86 660 102.86 694 84.86 738 66.86 776 52.86 806 40.86 834 28.86 862 16.86 888 4.86 910 20.86 928 42.86 948 64.86 966 86.86 982 110.86 996 160.86 1014 188.86 1028 210.86 1050 230.86 1072 262.86 1108 278.86 1126 296.86 1142 322.86 1166 342.86 1190 372.86 1222 400.86 1246 420.86 1266 452.86 1294 484.86 1322 520.86 1358 548.86 1384 572.86 1408 600.86 1430 624.86 1452 648.86 1468 678.86 1492 714.86 1520 742.86 1540 778.86 1562 802.86 1572 854.86 1594 904.86 1616 952.86 1638 994.86 1654 1040.86 1682 1074.86 1698 1100.86 1714 1130.86 1734 1168.86 1754 1192.86 1766 1236.86 1790 1254.86 1800"/></svg>